<svg xmlns="http://www.w3.org/2000/svg" xmlns:xlink="http://www.w3.org/1999/xlink" width="500" zoomAndPan="magnify" viewBox="0 0 375 374.999991" height="500" preserveAspectRatio="xMidYMid meet" version="1.0"><defs><g/></defs><g fill="#ff0000" fill-opacity="1"><g transform="translate(94.087756, 265.623441)"><g><path d="M 164.765625 -169.171875 L 143.859375 0 L 124.125 0 C 121.175781 0 118.789062 -0.484375 116.96875 -1.453125 C 115.15625 -2.421875 113.4375 -4.023438 111.8125 -6.265625 L 52.71875 -110.765625 C 52.476562 -106.273438 52.128906 -102.25 51.671875 -98.6875 L 40.0625 0 L 6.625 0 L 27.515625 -169.171875 L 47.484375 -169.171875 C 49.109375 -169.171875 50.484375 -169.113281 51.609375 -169 C 52.734375 -168.882812 53.71875 -168.613281 54.5625 -168.1875 C 55.414062 -167.757812 56.191406 -167.15625 56.890625 -166.375 C 57.585938 -165.601562 58.320312 -164.597656 59.09375 -163.359375 L 118.4375 -58.875 C 118.664062 -61.582031 118.894531 -64.171875 119.125 -66.640625 C 119.351562 -69.117188 119.625 -71.441406 119.9375 -73.609375 L 131.3125 -169.171875 Z M 164.765625 -169.171875 "/></g></g></g><g fill="#00ffff" fill-opacity="1"><g transform="translate(112.756191, 261.31349)"><g><path d="M 164.765625 -169.171875 L 143.859375 0 L 124.125 0 C 121.175781 0 118.789062 -0.484375 116.96875 -1.453125 C 115.15625 -2.421875 113.4375 -4.023438 111.8125 -6.265625 L 52.71875 -110.765625 C 52.476562 -106.273438 52.128906 -102.25 51.671875 -98.6875 L 40.0625 0 L 6.625 0 L 27.515625 -169.171875 L 47.484375 -169.171875 C 49.109375 -169.171875 50.484375 -169.113281 51.609375 -169 C 52.734375 -168.882812 53.71875 -168.613281 54.5625 -168.1875 C 55.414062 -167.757812 56.191406 -167.15625 56.890625 -166.375 C 57.585938 -165.601562 58.320312 -164.597656 59.09375 -163.359375 L 118.4375 -58.875 C 118.664062 -61.582031 118.894531 -64.171875 119.125 -66.640625 C 119.351562 -69.117188 119.625 -71.441406 119.9375 -73.609375 L 131.3125 -169.171875 Z M 164.765625 -169.171875 "/></g></g></g><g fill="#191919" fill-opacity="1"><g transform="translate(103.421975, 263.468464)"><g><path d="M 164.765625 -169.171875 L 143.859375 0 L 124.125 0 C 121.175781 0 118.789062 -0.484375 116.96875 -1.453125 C 115.15625 -2.421875 113.4375 -4.023438 111.8125 -6.265625 L 52.71875 -110.765625 C 52.476562 -106.273438 52.128906 -102.25 51.671875 -98.6875 L 40.0625 0 L 6.625 0 L 27.515625 -169.171875 L 47.484375 -169.171875 C 49.109375 -169.171875 50.484375 -169.113281 51.609375 -169 C 52.734375 -168.882812 53.71875 -168.613281 54.5625 -168.1875 C 55.414062 -167.757812 56.191406 -167.15625 56.890625 -166.375 C 57.585938 -165.601562 58.320312 -164.597656 59.09375 -163.359375 L 118.4375 -58.875 C 118.664062 -61.582031 118.894531 -64.171875 119.125 -66.640625 C 119.351562 -69.117188 119.625 -71.441406 119.9375 -73.609375 L 131.3125 -169.171875 Z M 164.765625 -169.171875 "/></g></g></g></svg>