<svg xmlns="http://www.w3.org/2000/svg" xmlns:xlink="http://www.w3.org/1999/xlink" width="1080" zoomAndPan="magnify" viewBox="0 0 810 809.999993" height="1080" preserveAspectRatio="xMidYMid meet" version="1.0"><rect x="-81" width="972" fill="#ffffff" y="-80.999999" height="971.999992" fill-opacity="1"/><rect x="-81" width="972" fill="#ffffff" y="-80.999999" height="971.999992" fill-opacity="1"/><path fill="#87dce8" d="M 364.65625 343.003906 C 362.902344 343.390625 361.144531 343.769531 359.398438 344.167969 C 351.121094 346.050781 342.839844 347.933594 334.566406 349.816406 C 329.921875 350.875 325.261719 351.933594 320.511719 352.28125 C 309.984375 353.058594 299.5625 350.324219 289.191406 348.34375 C 283.296875 347.214844 277.167969 346.332031 271.347656 347.78125 C 258.527344 350.972656 250.207031 374.375 246.289062 385.675781 C 244.554688 390.675781 243.238281 395.863281 243.035156 401.152344 C 242.78125 407.753906 244.265625 414.285156 245.175781 420.832031 C 251.988281 470.066406 226.246094 517.695312 221.007812 567.125 C 216.269531 611.824219 228.433594 656.429688 231.253906 701.289062 C 231.96875 712.660156 232.15625 724.40625 236.773438 734.824219 C 245.957031 755.539062 269.574219 765.171875 291.296875 771.625 C 296.238281 773.09375 301.265625 774.566406 306.320312 776.03125 C 347.46875 725.875 362.925781 657.578125 376.730469 592.511719 C 394.960938 506.878906 393.730469 421.25 364.65625 343.003906 Z M 364.65625 343.003906 " fill-opacity="1" fill-rule="nonzero"/><path fill="#2e689c" d="M 565.902344 657.144531 C 486.882812 647.570312 429.414062 582.941406 412.652344 506.347656 C 398.957031 442.480469 422.230469 382.960938 441.027344 323.648438 C 440.292969 323.996094 439.519531 324.289062 438.757812 324.554688 C 414.820312 332.90625 389.433594 337.527344 364.65625 343 C 393.730469 421.246094 394.960938 506.878906 376.730469 592.511719 C 362.925781 657.578125 347.46875 725.875 306.320312 776.03125 C 334.066406 784.066406 363.265625 791.769531 391.074219 795.847656 C 425.609375 800.910156 460.898438 798.097656 495.492188 795.125 C 509.695312 793.902344 523.953125 792.113281 537.519531 787.722656 C 565.3125 778.726562 588.917969 758.992188 605.582031 735.003906 C 619.429688 715.074219 628.730469 692.304688 634.851562 668.90625 C 637.433594 659.027344 641.128906 650.957031 645.496094 643.378906 C 622.011719 659.203125 590.570312 660.433594 565.902344 657.144531 Z M 565.902344 657.144531 " fill-opacity="1" fill-rule="nonzero"/><path fill="#ffda73" d="M 492.847656 144.910156 C 483.570312 132.832031 474.570312 120.542969 466.03125 107.921875 C 454.566406 90.96875 443.910156 73.441406 434.648438 55.183594 C 427.773438 41.628906 423.957031 18.234375 408.542969 12.9375 C 344.625 -9.027344 354.945312 94.699219 362.746094 125.128906 C 369.222656 150.371094 383.378906 172.84375 397.324219 194.84375 C 399.507812 198.292969 401.816406 201.753906 404.175781 205.230469 C 434.359375 189.621094 470.558594 171.179688 492.847656 144.910156 Z M 492.847656 144.910156 " fill-opacity="1" fill-rule="nonzero"/><path fill="#3b3029" d="M 411.667969 14.367188 C 410.675781 13.8125 409.644531 13.316406 408.542969 12.9375 C 406.871094 12.363281 405.261719 11.894531 403.691406 11.488281 C 402.851562 12.921875 402.476562 14.53125 403.140625 15.742188 C 405.175781 19.457031 409.847656 17.152344 411.667969 14.367188 Z M 411.667969 14.367188 " fill-opacity="1" fill-rule="nonzero"/><path fill="#3b3029" d="M 412 133.472656 C 412.746094 131.976562 412.347656 130.355469 411.34375 129.238281 C 410.488281 128.28125 409.1875 127.695312 407.789062 127.882812 C 405.015625 128.253906 401.699219 132.796875 403.136719 135.421875 C 405.316406 139.390625 410.5 136.492188 412 133.472656 Z M 412 133.472656 " fill-opacity="1" fill-rule="nonzero"/><path fill="#3b3029" d="M 409.6875 31.503906 C 410.265625 36.382812 416.660156 38.691406 420.636719 39.53125 C 422.902344 40.015625 425.824219 40.503906 428.777344 40.773438 C 426.832031 35.605469 424.746094 30.328125 422.117188 25.710938 C 421.359375 24.375 420.554688 23.101562 419.695312 21.898438 C 419.3125 22.355469 418.914062 22.792969 418.472656 23.183594 C 417.0625 24.421875 415.789062 24.699219 414.082031 25.464844 C 413.90625 25.542969 413.734375 25.625 413.558594 25.710938 C 411.242188 26.855469 409.347656 28.617188 409.6875 31.503906 Z M 409.6875 31.503906 " fill-opacity="1" fill-rule="nonzero"/><path fill="#3b3029" d="M 393.632812 80.234375 C 392.25 79.847656 391.0625 79.769531 390.03125 79.933594 C 382.703125 81.101562 383.394531 94.632812 379.601562 99.175781 C 376.804688 102.527344 372.554688 102.519531 368.953125 104.523438 C 365.730469 106.320312 362.617188 109.320312 360.972656 112.660156 C 360.738281 113.136719 360.558594 113.609375 360.421875 114.074219 C 360.859375 116.574219 361.316406 118.890625 361.773438 120.988281 C 364.089844 124.230469 368.421875 126.566406 372.21875 127.277344 C 378.660156 128.480469 386.625 125.808594 390.03125 119.804688 C 390.261719 119.398438 390.46875 118.980469 390.65625 118.542969 C 392.328125 114.640625 390.996094 109.191406 394.875 106.605469 C 397.035156 105.164062 399.613281 105.0625 401.496094 103.074219 C 403.386719 101.070312 404.035156 98.246094 404.292969 95.578125 C 405.058594 87.675781 399.125 82.714844 393.632812 80.234375 Z M 393.632812 80.234375 " fill-opacity="1" fill-rule="nonzero"/><path fill="#3b3029" d="M 417.050781 53.582031 C 415.835938 52.964844 414.421875 52.644531 412.882812 52.746094 C 406.246094 53.1875 401.097656 59.871094 405.042969 66 C 408.113281 70.769531 416.886719 69.128906 419.984375 64.519531 C 422.707031 60.46875 420.890625 55.53125 417.050781 53.582031 Z M 417.050781 53.582031 " fill-opacity="1" fill-rule="nonzero"/><path fill="#3b3029" d="M 424.195312 84.484375 C 420.199219 86.527344 420.75 91.296875 423.257812 94.558594 C 427.121094 99.589844 434.414062 100.015625 438.113281 94.335938 C 441.328125 89.398438 437.53125 86.335938 433.269531 85.039062 C 431.152344 83.824219 428.265625 82.402344 424.195312 84.484375 Z M 424.195312 84.484375 " fill-opacity="1" fill-rule="nonzero"/><path fill="#3b3029" d="M 462.214844 106.265625 C 457.65625 106.289062 451 109.902344 447.710938 110.078125 C 442.042969 110.375 436.757812 107.597656 431.113281 108.726562 C 427.4375 109.460938 423.550781 111.8125 423.863281 116.125 C 424.296875 122.179688 431.832031 124.214844 436.585938 125.324219 C 443.019531 126.816406 445.886719 126.082031 450.453125 121.820312 C 453.742188 118.75 455.988281 120.75 459.867188 119.625 C 463.667969 118.523438 468.574219 112.390625 466.234375 108.230469 C 465.414062 106.777344 463.96875 106.253906 462.214844 106.265625 Z M 462.214844 106.265625 " fill-opacity="1" fill-rule="nonzero"/><path fill="#3b3029" d="M 455.59375 150.871094 C 455.703125 150.066406 455.597656 149.058594 455.222656 147.785156 C 454.96875 146.921875 454.5625 146.128906 454.046875 145.386719 C 451.714844 142.039062 447.085938 139.882812 443.707031 138.335938 C 437.695312 135.578125 428.78125 133.433594 423.070312 137.804688 C 421.210938 139.226562 420.15625 141.378906 418.46875 142.859375 C 417.054688 144.101562 415.785156 144.375 414.078125 145.140625 C 413.902344 145.222656 413.726562 145.304688 413.554688 145.386719 C 411.238281 146.539062 409.339844 148.296875 409.683594 151.183594 C 410.261719 156.0625 416.65625 158.367188 420.632812 159.210938 C 425.464844 160.234375 433.242188 161.34375 438.058594 160.148438 C 440.792969 159.46875 442.226562 156.71875 444.625 155.46875 C 448.214844 153.601562 455.011719 155.238281 455.59375 150.871094 Z M 455.59375 150.871094 " fill-opacity="1" fill-rule="nonzero"/><path fill="#3b3029" d="M 489.445312 146.523438 C 489.207031 146.140625 488.910156 145.761719 488.570312 145.390625 C 486.128906 142.722656 481.332031 140.46875 478.195312 140.269531 C 475.042969 140.066406 469.347656 142.589844 467.546875 145.390625 C 467.515625 145.4375 467.480469 145.488281 467.449219 145.535156 C 464.851562 149.929688 473.957031 152.855469 477.496094 153.304688 C 479.238281 153.527344 482.886719 153.347656 485.820312 152.453125 C 487.277344 151.003906 488.691406 149.527344 490.058594 148.027344 C 489.964844 147.558594 489.777344 147.0625 489.445312 146.523438 Z M 489.445312 146.523438 " fill-opacity="1" fill-rule="nonzero"/><path fill="#3b3029" d="M 390.035156 155.539062 C 389.253906 155.398438 388.457031 155.488281 387.652344 155.75 C 385.03125 156.601562 382.351562 159.234375 380.054688 161.339844 C 379.417969 161.921875 378.875 162.589844 378.359375 163.28125 C 381.503906 169.097656 384.867188 174.820312 388.332031 180.480469 C 388.929688 180.078125 389.5 179.613281 390.035156 179.09375 C 391.132812 178.035156 392.097656 176.785156 392.929688 175.542969 C 397.082031 169.332031 397.820312 164.652344 393.554688 158.214844 C 392.460938 156.558594 391.269531 155.757812 390.035156 155.539062 Z M 390.035156 155.539062 " fill-opacity="1" fill-rule="nonzero"/><path fill="#3b3029" d="M 417.050781 173.261719 C 415.835938 172.644531 414.421875 172.324219 412.882812 172.425781 C 406.246094 172.867188 401.097656 179.550781 405.042969 185.683594 C 408.113281 190.449219 416.886719 188.8125 419.984375 184.199219 C 422.707031 180.148438 420.890625 175.210938 417.050781 173.261719 Z M 417.050781 173.261719 " fill-opacity="1" fill-rule="nonzero"/><path fill="#3b3029" d="M 455.984375 165.011719 C 455.847656 164.714844 455.675781 164.425781 455.464844 164.136719 C 453.757812 161.804688 450.921875 161.226562 448.382812 162.109375 C 441.355469 164.554688 441.082031 173.59375 441.609375 179.820312 C 441.75 181.472656 442.046875 183.042969 442.492188 184.523438 C 447.890625 181.34375 453.21875 178.027344 458.402344 174.546875 C 457.746094 173.910156 457.191406 173.203125 456.855469 172.1875 C 456.085938 169.863281 457.066406 167.289062 455.984375 165.011719 Z M 455.984375 165.011719 " fill-opacity="1" fill-rule="nonzero"/><path fill="#3b3029" d="M 372.058594 20.382812 C 373.863281 21.917969 377.679688 22.355469 379.902344 22.90625 C 382.023438 23.433594 386.613281 24.164062 390.03125 23.398438 C 392.066406 22.941406 393.683594 21.953125 394.128906 20.078125 C 394.722656 17.574219 392.398438 16.785156 390.03125 16.433594 C 389.621094 16.371094 389.210938 16.320312 388.816406 16.28125 C 388.027344 16.199219 387.292969 16.144531 386.722656 16.0625 C 383.796875 15.648438 380.964844 14.058594 378.027344 13.507812 C 375.394531 15.015625 373.070312 16.964844 371.007812 19.269531 C 371.277344 19.636719 371.617188 20.011719 372.058594 20.382812 Z M 372.058594 20.382812 " fill-opacity="1" fill-rule="nonzero"/><path fill="#3b3029" d="M 368.746094 93.070312 C 372.015625 91.71875 375.710938 85.867188 375.925781 82.398438 C 376.082031 79.839844 375.058594 78.414062 373.433594 77.78125 C 369.089844 76.101562 360.449219 80.148438 358.636719 83.632812 C 355.101562 90.425781 362.730469 95.554688 368.746094 93.070312 Z M 368.746094 93.070312 " fill-opacity="1" fill-rule="nonzero"/><path fill="#3b3029" d="M 390.035156 143.078125 C 392.066406 142.621094 393.6875 141.636719 394.132812 139.761719 C 394.726562 137.253906 392.402344 136.464844 390.035156 136.113281 C 389.625 136.054688 389.214844 136.003906 388.816406 135.960938 C 388.03125 135.882812 387.292969 135.824219 386.726562 135.746094 C 382.820312 135.1875 379.078125 132.535156 375.023438 133.078125 C 371.273438 133.578125 368.199219 136.789062 372.058594 140.066406 C 373.863281 141.597656 377.679688 142.035156 379.902344 142.585938 C 382.023438 143.113281 386.613281 143.847656 390.035156 143.078125 Z M 390.035156 143.078125 " fill-opacity="1" fill-rule="nonzero"/><path fill="#3b3029" d="M 372.839844 62.460938 C 376.21875 58.484375 377.40625 60.179688 381.234375 61.683594 C 384.757812 63.066406 387.695312 61.671875 390.035156 59.414062 C 391.132812 58.355469 392.097656 57.105469 392.929688 55.863281 C 397.082031 49.652344 397.820312 44.972656 393.554688 38.535156 C 392.460938 36.882812 391.269531 36.078125 390.035156 35.855469 C 389.253906 35.71875 388.457031 35.808594 387.652344 36.070312 C 385.03125 36.921875 382.351562 39.550781 380.054688 41.660156 C 376.527344 44.894531 375.417969 50.433594 370.011719 50.957031 C 366.398438 51.308594 363.1875 50.003906 359.726562 51.617188 C 359.226562 51.851562 358.753906 52.121094 358.300781 52.410156 C 357.796875 56.050781 357.449219 59.789062 357.226562 63.570312 C 359.84375 65.4375 363.148438 66.113281 366.328125 66.402344 C 370.652344 66.789062 370.453125 65.265625 372.839844 62.460938 Z M 372.839844 62.460938 " fill-opacity="1" fill-rule="nonzero"/><path fill="#3b3029" d="M 370.210938 29.980469 C 370.578125 29.117188 370.484375 28.082031 369.714844 26.839844 C 369.480469 26.457031 369.183594 26.078125 368.84375 25.707031 C 368.394531 25.214844 367.847656 24.75 367.265625 24.296875 C 366.976562 24.757812 366.695312 25.230469 366.421875 25.707031 C 365.058594 28.097656 363.867188 30.695312 362.835938 33.460938 C 365.984375 33.035156 369.347656 31.984375 370.210938 29.980469 Z M 370.210938 29.980469 " fill-opacity="1" fill-rule="nonzero"/><path fill="#2e689c" d="M 569.949219 237.128906 C 560.054688 227.105469 551.019531 216.28125 541.996094 205.46875 C 525.34375 185.523438 508.683594 165.527344 492.847656 144.910156 C 470.558594 171.179688 434.359375 189.621094 404.175781 205.230469 C 417.074219 224.210938 431.898438 243.636719 441.050781 263.933594 C 441.734375 265.445312 442.328125 266.96875 442.859375 268.503906 C 479.675781 260.175781 517.648438 259.921875 553.929688 247.835938 C 560.015625 245.402344 565.640625 242.03125 571.074219 238.253906 C 570.703125 237.878906 570.324219 237.503906 569.949219 237.128906 Z M 569.949219 237.128906 " fill-opacity="1" fill-rule="nonzero"/><path fill="#e468b4" d="M 625.242188 322.203125 C 621.464844 310.109375 614.757812 299.652344 610.453125 287.554688 C 603.332031 267.554688 586.109375 253.316406 571.078125 238.25 C 565.640625 242.03125 560.019531 245.398438 553.929688 247.832031 C 517.648438 259.921875 479.679688 260.171875 442.863281 268.5 C 446.761719 279.734375 446.863281 291.539062 446.25 303.523438 C 512.664062 273.761719 589.285156 303.433594 637.832031 357.121094 C 633.261719 345.621094 628.933594 334.039062 625.242188 322.203125 Z M 625.242188 322.203125 " fill-opacity="1" fill-rule="nonzero"/><path fill="#ffda73" d="M 658.585938 425.332031 C 651.933594 405.691406 649.425781 385.734375 641.539062 366.363281 C 640.285156 363.289062 639.054688 360.207031 637.832031 357.128906 C 589.289062 303.4375 512.664062 273.765625 446.25 303.53125 C 446.054688 307.347656 445.792969 311.183594 445.550781 315.027344 C 445.402344 317.429688 445.175781 320.023438 443.59375 321.835938 C 442.898438 322.636719 441.996094 323.195312 441.027344 323.648438 C 422.230469 382.960938 398.960938 442.480469 412.652344 506.347656 C 429.414062 582.941406 486.882812 647.570312 565.90625 657.144531 C 590.570312 660.433594 622.011719 659.203125 645.496094 643.378906 C 651.289062 633.332031 658.265625 624.152344 665.4375 612.804688 C 699.207031 559.363281 677.273438 480.507812 658.585938 425.332031 Z M 658.585938 425.332031 " fill-opacity="1" fill-rule="nonzero"/><path fill="#3b3029" d="M 638.574219 398.738281 C 640.066406 395.742188 639.265625 392.5 637.261719 390.269531 C 635.546875 388.355469 632.949219 387.1875 630.152344 387.558594 C 624.609375 388.296875 617.972656 397.386719 620.851562 402.636719 C 625.203125 410.574219 635.574219 404.773438 638.574219 398.738281 Z M 638.574219 398.738281 " fill-opacity="1" fill-rule="nonzero"/><path fill="#3b3029" d="M 594.636719 404.015625 C 593.820312 403.894531 593 403.796875 592.207031 403.714844 C 590.632812 403.550781 589.160156 403.441406 588.027344 403.277344 C 580.214844 402.164062 572.726562 396.863281 564.621094 397.945312 C 557.121094 398.949219 550.96875 405.371094 558.6875 411.921875 C 562.300781 414.988281 569.925781 415.859375 574.378906 416.964844 C 578.613281 418.015625 587.792969 419.484375 594.636719 417.945312 C 598.703125 417.03125 601.945312 415.0625 602.832031 411.3125 C 604.015625 406.300781 599.375 404.71875 594.636719 404.015625 Z M 594.636719 404.015625 " fill-opacity="1" fill-rule="nonzero"/><path fill="#3b3029" d="M 630.152344 626.921875 C 624.609375 627.660156 617.972656 636.75 620.851562 641.996094 C 625.203125 649.933594 635.574219 644.132812 638.574219 638.101562 C 640.066406 635.105469 639.265625 631.863281 637.261719 629.632812 C 635.546875 627.714844 632.945312 626.546875 630.152344 626.921875 Z M 630.152344 626.921875 " fill-opacity="1" fill-rule="nonzero"/><path fill="#3b3029" d="M 594.636719 643.378906 C 593.820312 643.253906 593 643.15625 592.207031 643.078125 C 590.632812 642.914062 589.160156 642.804688 588.027344 642.640625 C 580.214844 641.523438 572.726562 636.226562 564.621094 637.308594 C 557.121094 638.3125 550.96875 644.734375 558.6875 651.285156 C 562.300781 654.351562 569.925781 655.222656 574.378906 656.328125 C 578.613281 657.378906 587.792969 658.84375 594.636719 657.308594 C 598.703125 656.394531 601.945312 654.425781 602.832031 650.671875 C 604.015625 645.660156 599.375 644.082031 594.636719 643.378906 Z M 594.636719 643.378906 " fill-opacity="1" fill-rule="nonzero"/><path fill="#3b3029" d="M 633.945312 434.160156 C 635.101562 443.914062 647.890625 448.53125 655.84375 450.214844 C 659.101562 450.90625 663.035156 451.609375 667.179688 452.15625 C 664.378906 442.777344 661.445312 433.773438 658.585938 425.328125 C 658.273438 424.410156 658.011719 423.484375 657.714844 422.5625 C 656.761719 419.578125 655.878906 416.582031 655.058594 413.585938 C 653.957031 414.984375 652.832031 416.351562 651.511719 417.507812 C 648.6875 419.988281 646.144531 420.539062 642.730469 422.070312 C 642.378906 422.226562 642.03125 422.390625 641.6875 422.5625 C 637.058594 424.871094 633.265625 428.386719 633.945312 434.160156 Z M 633.945312 434.160156 " fill-opacity="1" fill-rule="nonzero"/><path fill="#3b3029" d="M 601.839844 531.621094 C 599.074219 530.847656 596.699219 530.695312 594.636719 531.023438 C 579.984375 533.351562 581.367188 560.421875 573.78125 569.5 C 568.183594 576.207031 559.6875 576.191406 552.484375 580.199219 C 546.035156 583.792969 539.8125 589.792969 536.523438 596.472656 C 529.355469 611.011719 545.824219 623.242188 559.015625 625.707031 C 571.898438 628.113281 587.824219 622.769531 594.636719 610.761719 C 595.09375 609.949219 595.515625 609.109375 595.886719 608.242188 C 599.226562 600.4375 596.566406 589.539062 604.324219 584.367188 C 608.640625 581.484375 613.800781 581.28125 617.5625 577.304688 C 621.347656 573.296875 622.640625 567.648438 623.15625 562.316406 C 624.691406 546.503906 612.820312 536.582031 601.839844 531.621094 Z M 601.839844 531.621094 " fill-opacity="1" fill-rule="nonzero"/><path fill="#3b3029" d="M 648.675781 478.3125 C 646.246094 477.078125 643.414062 476.441406 640.335938 476.644531 C 627.058594 477.527344 616.765625 490.894531 624.660156 503.15625 C 630.800781 512.695312 648.34375 509.410156 654.539062 500.191406 C 659.984375 492.089844 656.351562 482.21875 648.675781 478.3125 Z M 648.675781 478.3125 " fill-opacity="1" fill-rule="nonzero"/><path fill="#3b3029" d="M 681.105469 541.234375 C 676.875 538.800781 671.101562 535.960938 662.96875 540.121094 C 654.972656 544.210938 656.074219 553.746094 661.085938 560.273438 C 666.21875 566.953125 674.367188 569.542969 681.4375 567.222656 C 682.605469 558.957031 683.082031 550.476562 683.003906 541.886719 C 682.378906 541.652344 681.746094 541.429688 681.105469 541.234375 Z M 681.105469 541.234375 " fill-opacity="1" fill-rule="nonzero"/><path fill="#3b3029" d="M 662.296875 603.402344 C 662.542969 606.816406 663.941406 609.574219 666 611.847656 C 670.503906 604.542969 673.972656 596.769531 676.578125 588.660156 C 669.292969 590.179688 661.683594 594.863281 662.296875 603.402344 Z M 662.296875 603.402344 " fill-opacity="1" fill-rule="nonzero"/><path fill="#3b3029" d="M 536.523438 357.109375 C 529.355469 371.648438 545.824219 383.882812 559.015625 386.34375 C 571.898438 388.75 587.824219 383.410156 594.636719 371.398438 C 595.09375 370.589844 595.515625 369.75 595.886719 368.878906 C 599.226562 361.074219 596.566406 350.179688 604.324219 345.003906 C 608.640625 342.125 613.800781 341.921875 617.5625 337.941406 C 617.636719 337.863281 617.699219 337.769531 617.773438 337.683594 C 610.441406 331.445312 602.695312 325.722656 594.632812 320.574219 C 590.003906 317.617188 585.273438 314.851562 580.453125 312.300781 C 578.574219 319.308594 576.96875 326.316406 573.777344 330.140625 C 568.179688 336.84375 559.683594 336.828125 552.480469 340.839844 C 546.035156 344.429688 539.8125 350.433594 536.523438 357.109375 Z M 536.523438 357.109375 " fill-opacity="1" fill-rule="nonzero"/><path fill="#3b3029" d="M 552.066406 317.929688 C 556.433594 316.125 561.175781 310.300781 563.972656 304.566406 C 554.484375 300.652344 544.753906 297.546875 534.886719 295.382812 C 533.542969 296.597656 532.476562 297.84375 531.84375 299.0625 C 524.773438 312.640625 540.03125 322.902344 552.066406 317.929688 Z M 552.066406 317.929688 " fill-opacity="1" fill-rule="nonzero"/><path fill="#3b3029" d="M 451.339844 320.46875 C 456.570312 312.433594 452.523438 306.882812 446.238281 303.695312 C 446.046875 307.457031 445.785156 311.238281 445.550781 315.027344 C 445.398438 317.429688 445.171875 320.023438 443.59375 321.835938 C 442.894531 322.636719 441.992188 323.195312 441.027344 323.648438 C 440.515625 325.253906 440.003906 326.863281 439.488281 328.46875 C 444.003906 327.730469 448.285156 325.152344 451.339844 320.46875 Z M 451.339844 320.46875 " fill-opacity="1" fill-rule="nonzero"/><path fill="#3b3029" d="M 499.542969 344.320312 C 490.429688 344.371094 477.117188 351.601562 470.542969 351.945312 C 459.203125 352.542969 448.632812 346.988281 437.347656 349.246094 C 435.636719 349.589844 433.910156 350.113281 432.265625 350.8125 C 430.039062 357.710938 427.839844 364.617188 425.730469 371.542969 C 430.734375 378.023438 441.09375 380.765625 448.289062 382.4375 C 461.15625 385.425781 466.886719 383.957031 476.015625 375.4375 C 482.597656 369.292969 487.089844 373.292969 494.847656 371.050781 C 502.445312 368.847656 512.265625 356.574219 507.585938 348.261719 C 505.941406 345.347656 503.054688 344.300781 499.542969 344.320312 Z M 499.542969 344.320312 " fill-opacity="1" fill-rule="nonzero"/><path fill="#3b3029" d="M 552.066406 557.292969 C 558.601562 554.589844 565.996094 542.894531 566.421875 535.953125 C 566.738281 530.835938 564.6875 527.976562 561.441406 526.71875 C 552.753906 523.355469 535.46875 531.453125 531.84375 538.421875 C 524.773438 552.003906 540.03125 562.261719 552.066406 557.292969 Z M 552.066406 557.292969 " fill-opacity="1" fill-rule="nonzero"/><path fill="#3b3029" d="M 560.253906 496.066406 C 567.015625 488.121094 569.382812 491.511719 577.039062 494.515625 C 584.085938 497.28125 589.964844 494.488281 594.636719 489.976562 C 596.832031 487.859375 598.769531 485.359375 600.429688 482.875 C 608.738281 470.453125 610.214844 461.09375 601.683594 448.21875 C 599.492188 444.910156 597.113281 443.304688 594.636719 442.863281 C 593.078125 442.585938 591.484375 442.765625 589.878906 443.289062 C 584.632812 444.988281 579.273438 450.253906 574.679688 454.464844 C 567.621094 460.9375 565.410156 472.015625 554.597656 473.058594 C 547.375 473.757812 540.945312 471.148438 534.023438 474.378906 C 523.738281 479.179688 518.089844 489.828125 528.171875 497.753906 C 533.523438 501.960938 540.53125 503.335938 547.226562 503.945312 C 555.878906 504.734375 555.480469 501.683594 560.253906 496.066406 Z M 560.253906 496.066406 " fill-opacity="1" fill-rule="nonzero"/><path fill="#3b3029" d="M 451.242188 452.089844 C 456.714844 450.726562 459.574219 445.226562 464.375 442.730469 C 471.546875 439 485.140625 442.265625 486.308594 433.535156 C 486.523438 431.921875 486.316406 429.90625 485.566406 427.359375 C 485.058594 425.636719 484.246094 424.046875 483.214844 422.570312 C 478.546875 415.871094 469.292969 411.5625 462.539062 408.464844 C 450.511719 402.949219 432.6875 398.664062 421.265625 407.402344 C 418.417969 409.582031 416.507812 412.609375 414.257812 415.238281 C 413.753906 417.679688 413.277344 420.121094 412.828125 422.570312 C 411.269531 431.0625 410.0625 439.605469 409.335938 448.203125 C 411.820312 449.105469 414.277344 449.769531 416.386719 450.21875 C 426.054688 452.265625 441.617188 454.484375 451.242188 452.089844 Z M 451.242188 452.089844 " fill-opacity="1" fill-rule="nonzero"/><path fill="#3b3029" d="M 554.988281 431.113281 C 555.726562 429.386719 555.542969 427.3125 554.003906 424.832031 C 553.527344 424.066406 552.933594 423.3125 552.257812 422.570312 C 547.375 417.238281 537.777344 412.722656 531.503906 412.320312 C 525.199219 411.921875 513.808594 416.964844 510.210938 422.570312 C 510.148438 422.664062 510.074219 422.757812 510.019531 422.855469 C 504.824219 431.640625 523.03125 437.496094 530.113281 438.394531 C 535.886719 439.132812 552.171875 437.691406 554.988281 431.113281 Z M 554.988281 431.113281 " fill-opacity="1" fill-rule="nonzero"/><path fill="#3b3029" d="M 409.21875 478.3125 C 409.109375 478.257812 408.988281 478.222656 408.875 478.167969 C 409.359375 486.542969 410.40625 494.984375 412.089844 503.503906 C 413.25 502.507812 414.269531 501.40625 415.085938 500.191406 C 420.527344 492.089844 416.894531 482.21875 409.21875 478.3125 Z M 409.21875 478.3125 " fill-opacity="1" fill-rule="nonzero"/><path fill="#3b3029" d="M 487.085938 461.8125 C 486.808594 461.222656 486.464844 460.640625 486.042969 460.0625 C 482.632812 455.394531 476.960938 454.242188 471.878906 456.007812 C 457.828125 460.894531 457.28125 478.976562 458.335938 491.429688 C 459.511719 505.324219 465.816406 516.570312 479.335938 521.488281 C 490.269531 525.464844 504.648438 524.003906 507.867188 510.84375 C 510.3125 500.851562 503.5625 491.515625 496.675781 485.039062 C 493.441406 481.996094 490.214844 480.402344 488.820312 476.167969 C 487.285156 471.519531 489.246094 466.371094 487.085938 461.8125 Z M 487.085938 461.8125 " fill-opacity="1" fill-rule="nonzero"/><path fill="#3b3029" d="M 441.648438 541.234375 C 437.417969 538.800781 431.644531 535.960938 423.511719 540.121094 C 423.363281 540.199219 423.234375 540.289062 423.089844 540.371094 C 426.925781 549.972656 431.429688 559.242188 436.566406 568.078125 C 442.117188 568.144531 447.628906 565.519531 451.335938 559.828125 C 457.773438 549.953125 450.179688 543.828125 441.648438 541.234375 Z M 441.648438 541.234375 " fill-opacity="1" fill-rule="nonzero"/><path fill="#3b3029" d="M 499.542969 583.683594 C 490.429688 583.734375 477.117188 590.960938 470.542969 591.308594 C 463.625 591.671875 456.996094 589.75 450.316406 588.707031 C 457.742188 598.496094 466.03125 607.527344 475.117188 615.613281 C 475.414062 615.339844 475.710938 615.082031 476.019531 614.796875 C 482.601562 608.652344 487.09375 612.652344 494.847656 610.410156 C 502.445312 608.207031 512.269531 595.933594 507.589844 587.621094 C 505.941406 584.707031 503.054688 583.664062 499.542969 583.683594 Z M 499.542969 583.683594 " fill-opacity="1" fill-rule="nonzero"/><path fill="#e468b4" d="M 380.148438 503.695312 C 373.90625 488.582031 357.171875 475.054688 342.457031 470.007812 C 341.058594 469.527344 339.585938 469.066406 338.132812 469.316406 C 336.914062 469.527344 335.835938 470.222656 334.875 470.996094 C 328.25 476.304688 327.191406 485.449219 326.238281 493.355469 C 324.617188 506.832031 323.210938 520.339844 321.695312 533.828125 C 320.707031 542.613281 319.710938 551.457031 317.0625 559.890625 C 315.597656 564.5625 313.785156 570.148438 316.902344 573.917969 C 319.890625 577.53125 325.480469 577.035156 330.085938 576.152344 C 344.117188 573.460938 359.300781 569.210938 368.859375 559.238281 C 366.695312 559.015625 364.53125 559.003906 362.367188 559.003906 C 364.328125 539.386719 366.3125 516.5625 380.148438 503.695312 Z M 380.148438 503.695312 " fill-opacity="1" fill-rule="nonzero"/><path fill="#3b3029" d="M 380.148438 503.695312 C 366.3125 516.5625 364.328125 539.386719 362.363281 559.003906 C 364.53125 559.003906 366.691406 559.015625 368.855469 559.238281 C 370.765625 557.242188 372.472656 555.042969 373.878906 552.558594 C 376.738281 547.496094 378.140625 541.761719 379.507812 536.109375 C 381.910156 526.195312 384.292969 515.636719 381.03125 505.972656 C 380.769531 505.207031 380.457031 504.453125 380.148438 503.695312 Z M 380.148438 503.695312 " fill-opacity="1" fill-rule="nonzero"/><path fill="#3b3029" d="M 315.882812 368.710938 C 319.050781 365.269531 321.410156 360.992188 322.570312 355.699219 C 322.792969 354.683594 322.941406 353.550781 322.390625 352.671875 C 321.867188 351.835938 320.859375 351.464844 319.921875 351.152344 C 309.367188 347.613281 299.527344 343.363281 289.867188 337.800781 C 274.339844 328.863281 258.652344 318.03125 240.28125 316.457031 C 234.03125 315.917969 227.738281 316.511719 221.542969 317.480469 C 213.347656 318.765625 205.148438 320.753906 197.867188 324.730469 C 190.585938 328.703125 184.246094 334.84375 181.3125 342.601562 C 180.222656 345.488281 179.617188 348.65625 180.277344 351.667969 C 181.597656 357.671875 187.402344 361.46875 192.863281 364.289062 C 213.320312 374.851562 236.117188 380.789062 259.109375 381.8125 C 266.5 382.136719 273.902344 382.355469 281.289062 381.863281 C 293.738281 381.035156 307.589844 377.730469 315.882812 368.710938 Z M 315.882812 368.710938 " fill-opacity="1" fill-rule="nonzero"/><path fill="#ffda73" d="M 295.316406 688.261719 C 292.195312 677.34375 287.003906 668.496094 279.820312 661.644531 C 258.375 660.984375 236.925781 660.324219 215.480469 659.660156 C 205.683594 659.359375 195.738281 659.074219 186.21875 661.414062 C 163.34375 667.039062 144.1875 685.710938 142.898438 709.8125 C 142.621094 715.046875 143.164062 720.410156 145.234375 725.226562 C 147.195312 729.789062 150.421875 733.667969 153.691406 737.410156 C 166.238281 751.761719 181.078125 765.648438 199.730469 769.601562 C 220.355469 773.972656 241.589844 764.699219 261.058594 759.113281 C 269.554688 756.675781 277.828125 753.097656 286.054688 749.210938 C 296.460938 732 298.441406 710.132812 295.316406 688.261719 Z M 295.316406 688.261719 " fill-opacity="1" fill-rule="nonzero"/><path fill="#3b3029" d="M 287.46875 742.742188 C 283.640625 743.351562 282.003906 747.335938 280.773438 751.648438 C 282.535156 750.855469 284.300781 750.046875 286.058594 749.214844 C 286.550781 748.398438 287.011719 747.558594 287.46875 746.722656 C 288.175781 745.421875 288.855469 744.097656 289.476562 742.75 C 288.75 742.664062 288.070312 742.644531 287.46875 742.742188 Z M 287.46875 742.742188 " fill-opacity="1" fill-rule="nonzero"/><path fill="#3b3029" d="M 290.988281 701.339844 C 289.894531 699.6875 288.703125 698.882812 287.46875 698.664062 C 286.6875 698.523438 285.890625 698.617188 285.085938 698.875 C 282.464844 699.726562 279.785156 702.359375 277.488281 704.464844 C 273.960938 707.703125 272.851562 713.242188 267.445312 713.765625 C 263.835938 714.113281 260.621094 712.808594 257.160156 714.425781 C 252.015625 716.824219 249.191406 722.148438 254.234375 726.113281 C 256.90625 728.21875 260.410156 728.902344 263.757812 729.207031 C 268.085938 729.601562 267.886719 728.078125 270.273438 725.269531 C 273.652344 721.296875 274.839844 722.992188 278.667969 724.496094 C 282.191406 725.878906 285.128906 724.484375 287.46875 722.226562 C 288.566406 721.164062 289.53125 719.917969 290.363281 718.675781 C 294.515625 712.457031 295.253906 707.777344 290.988281 701.339844 Z M 290.988281 701.339844 " fill-opacity="1" fill-rule="nonzero"/><path fill="#3b3029" d="M 269.652344 670.402344 C 274.578125 671.324219 280.371094 669.964844 284.359375 666.601562 C 282.941406 664.851562 281.4375 663.191406 279.820312 661.644531 C 272.457031 661.417969 265.089844 661.195312 257.726562 660.964844 C 258.839844 665.808594 264.710938 669.480469 269.652344 670.402344 Z M 269.652344 670.402344 " fill-opacity="1" fill-rule="nonzero"/><path fill="#3b3029" d="M 189.707031 676.597656 C 190.453125 675.101562 190.050781 673.480469 189.050781 672.363281 C 188.191406 671.40625 186.894531 670.824219 185.496094 671.011719 C 182.722656 671.378906 179.40625 675.925781 180.84375 678.546875 C 183.019531 682.519531 188.207031 679.617188 189.707031 676.597656 Z M 189.707031 676.597656 " fill-opacity="1" fill-rule="nonzero"/><path fill="#3b3029" d="M 272.457031 676.203125 C 268.707031 676.703125 265.632812 679.917969 269.492188 683.191406 C 271.296875 684.726562 275.113281 685.160156 277.335938 685.710938 C 279.453125 686.238281 284.046875 686.96875 287.464844 686.203125 C 289.496094 685.746094 291.117188 684.757812 291.5625 682.882812 C 292.15625 680.378906 289.832031 679.589844 287.464844 679.238281 C 287.054688 679.179688 286.644531 679.128906 286.25 679.089844 C 285.460938 679.007812 284.726562 678.953125 284.15625 678.871094 C 280.253906 678.3125 276.511719 675.664062 272.457031 676.203125 Z M 272.457031 676.203125 " fill-opacity="1" fill-rule="nonzero"/><path fill="#3b3029" d="M 214.292969 668.449219 C 220.726562 669.941406 223.589844 669.207031 228.15625 664.949219 C 231.445312 661.878906 233.695312 663.878906 237.570312 662.753906 C 238.761719 662.410156 240.058594 661.570312 241.210938 660.457031 C 232.632812 660.191406 224.058594 659.925781 215.484375 659.664062 C 210.871094 659.523438 206.226562 659.394531 201.609375 659.53125 C 202.257812 665.363281 209.613281 667.363281 214.292969 668.449219 Z M 214.292969 668.449219 " fill-opacity="1" fill-rule="nonzero"/><path fill="#3b3029" d="M 270.867188 740.59375 C 266.523438 738.910156 257.882812 742.960938 256.070312 746.441406 C 252.535156 753.234375 260.160156 758.363281 266.179688 755.878906 C 269.449219 754.527344 273.144531 748.679688 273.359375 745.210938 C 273.515625 742.648438 272.492188 741.21875 270.867188 740.59375 Z M 270.867188 740.59375 " fill-opacity="1" fill-rule="nonzero"/><path fill="#3b3029" d="M 187.394531 694.3125 C 187.96875 699.191406 194.363281 701.496094 198.339844 702.339844 C 203.175781 703.363281 210.957031 704.476562 215.769531 703.277344 C 218.503906 702.597656 219.9375 699.847656 222.335938 698.597656 C 225.921875 696.730469 232.71875 698.363281 233.300781 694 C 233.40625 693.195312 233.304688 692.183594 232.929688 690.914062 C 232.675781 690.050781 232.269531 689.253906 231.753906 688.515625 C 229.421875 685.167969 224.792969 683.011719 221.414062 681.460938 C 215.402344 678.707031 206.488281 676.5625 200.777344 680.929688 C 198.917969 682.351562 197.863281 684.503906 196.175781 685.988281 C 194.765625 687.226562 193.492188 687.503906 191.785156 688.269531 C 191.609375 688.347656 191.433594 688.429688 191.261719 688.515625 C 188.949219 689.664062 187.050781 691.425781 187.394531 694.3125 Z M 187.394531 694.3125 " fill-opacity="1" fill-rule="nonzero"/><path fill="#3b3029" d="M 267.640625 692.785156 C 268.007812 691.925781 267.914062 690.890625 267.148438 689.648438 C 266.910156 689.261719 266.613281 688.886719 266.273438 688.515625 C 263.832031 685.847656 259.035156 683.589844 255.898438 683.390625 C 252.746094 683.191406 247.050781 685.714844 245.253906 688.515625 C 245.222656 688.5625 245.183594 688.609375 245.15625 688.65625 C 242.558594 693.050781 251.664062 695.976562 255.203125 696.425781 C 258.089844 696.796875 266.230469 696.074219 267.640625 692.785156 Z M 267.640625 692.785156 " fill-opacity="1" fill-rule="nonzero"/><path fill="#3b3029" d="M 171.335938 743.039062 C 169.953125 742.65625 168.769531 742.578125 167.738281 742.742188 C 165.351562 743.121094 163.820312 744.820312 162.707031 747.085938 C 164.34375 748.722656 166.019531 750.3125 167.738281 751.855469 C 171.992188 755.675781 176.5 759.160156 181.292969 762.074219 C 181.660156 760.875 181.878906 759.621094 182 758.390625 C 182.761719 750.484375 176.828125 745.519531 171.335938 743.039062 Z M 171.335938 743.039062 " fill-opacity="1" fill-rule="nonzero"/><path fill="#3b3029" d="M 170.632812 718.667969 C 174.789062 712.457031 175.527344 707.777344 171.261719 701.339844 C 170.164062 699.6875 168.972656 698.882812 167.738281 698.664062 C 166.957031 698.523438 166.160156 698.617188 165.359375 698.875 C 162.738281 699.726562 160.058594 702.359375 157.761719 704.464844 C 154.230469 707.703125 153.125 713.242188 147.71875 713.765625 C 146.03125 713.925781 144.433594 713.734375 142.855469 713.644531 C 142.980469 717.625 143.671875 721.585938 145.238281 725.234375 C 145.789062 726.519531 146.460938 727.742188 147.1875 728.933594 C 148.515625 728.367188 148.988281 727.097656 150.542969 725.269531 C 153.921875 721.296875 155.109375 722.988281 158.9375 724.492188 C 162.460938 725.875 165.398438 724.480469 167.738281 722.222656 C 168.835938 721.160156 169.804688 719.910156 170.632812 718.667969 Z M 170.632812 718.667969 " fill-opacity="1" fill-rule="nonzero"/><path fill="#3b3029" d="M 194.757812 716.386719 C 193.542969 715.769531 192.125 715.453125 190.585938 715.550781 C 183.949219 715.992188 178.800781 722.679688 182.75 728.808594 C 185.820312 733.578125 194.59375 731.9375 197.691406 727.324219 C 200.414062 723.277344 198.59375 718.339844 194.757812 716.386719 Z M 194.757812 716.386719 " fill-opacity="1" fill-rule="nonzero"/><path fill="#3b3029" d="M 234.558594 715.3125 C 233.789062 712.988281 234.769531 710.414062 233.691406 708.136719 C 233.550781 707.84375 233.378906 707.550781 233.167969 707.261719 C 231.464844 704.929688 228.625 704.351562 226.085938 705.234375 C 219.0625 707.679688 218.789062 716.722656 219.3125 722.945312 C 219.898438 729.894531 223.054688 735.515625 229.816406 737.972656 C 235.28125 739.960938 242.472656 739.230469 244.082031 732.648438 C 245.300781 727.652344 241.929688 722.988281 238.484375 719.746094 C 236.871094 718.230469 235.257812 717.433594 234.558594 715.3125 Z M 234.558594 715.3125 " fill-opacity="1" fill-rule="nonzero"/><path fill="#3b3029" d="M 210.972656 747.847656 C 208.859375 746.632812 205.96875 745.210938 201.90625 747.292969 C 197.90625 749.335938 198.457031 754.101562 200.964844 757.367188 C 204.828125 762.394531 212.121094 762.824219 215.820312 757.144531 C 219.03125 752.207031 215.238281 749.144531 210.972656 747.847656 Z M 210.972656 747.847656 " fill-opacity="1" fill-rule="nonzero"/><path fill="#3b3029" d="M 167.738281 686.203125 C 169.773438 685.746094 171.390625 684.761719 171.835938 682.886719 C 172.429688 680.382812 170.105469 679.589844 167.738281 679.242188 C 167.328125 679.183594 166.917969 679.132812 166.523438 679.089844 C 165.734375 679.007812 165 678.953125 164.433594 678.871094 C 162.324219 678.574219 160.265625 677.671875 158.179688 676.980469 C 155.875 679.25 153.777344 681.703125 151.917969 684.328125 C 153.785156 685 156.070312 685.332031 157.609375 685.714844 C 159.722656 686.242188 164.316406 686.972656 167.738281 686.203125 Z M 167.738281 686.203125 " fill-opacity="1" fill-rule="nonzero"/><path fill="#3b3029" d="M 147.910156 692.785156 C 148.144531 692.238281 148.167969 691.613281 147.972656 690.914062 C 147.398438 692.066406 146.863281 693.242188 146.375 694.441406 C 147.089844 693.980469 147.632812 693.4375 147.910156 692.785156 Z M 147.910156 692.785156 " fill-opacity="1" fill-rule="nonzero"/><path fill="#e468b4" d="M 343.207031 700.230469 C 332.300781 691.507812 325.394531 676.820312 326.058594 659.796875 C 325.152344 660.210938 324.257812 660.601562 323.378906 660.933594 C 312.992188 664.914062 299.019531 662.234375 288.007812 661.894531 C 285.277344 661.8125 282.550781 661.726562 279.820312 661.644531 C 287.007812 668.496094 292.199219 677.34375 295.320312 688.261719 C 298.445312 710.132812 296.464844 732 286.0625 749.214844 C 298.820312 743.183594 311.460938 736.402344 324.609375 731.925781 C 339.96875 726.699219 356.390625 712.980469 363.742188 697.726562 C 356.492188 701.988281 349.242188 703.847656 343.207031 700.230469 Z M 343.207031 700.230469 " fill-opacity="1" fill-rule="nonzero"/><path fill="#ffda73" d="M 343.207031 700.230469 C 349.242188 703.847656 356.496094 701.988281 363.738281 697.726562 C 370.804688 683.0625 369.492188 666.972656 350.726562 655.625 C 342.558594 650.683594 333.863281 656.253906 326.058594 659.796875 C 325.394531 676.820312 332.300781 691.507812 343.207031 700.230469 Z M 343.207031 700.230469 " fill-opacity="1" fill-rule="nonzero"/><path fill="#3b3029" d="M 355.179688 623.632812 C 361.929688 630.378906 371.058594 622.871094 380.886719 617.839844 C 381.242188 616.378906 381.601562 614.902344 382 613.367188 C 385.828125 598.691406 381.4375 580.660156 368.671875 573.328125 C 347.695312 581.851562 338.089844 606.546875 355.179688 623.632812 Z M 355.179688 623.632812 " fill-opacity="1" fill-rule="nonzero"/><path fill="#87dce8" d="M 355.179688 623.632812 C 338.089844 606.546875 347.695312 581.851562 368.675781 573.328125 C 366.269531 571.945312 363.601562 570.902344 360.597656 570.378906 C 350.484375 568.613281 339.269531 574.628906 329.066406 575.539062 C 316.921875 576.617188 304.519531 574.914062 292.484375 573.421875 C 281.082031 572.007812 269.664062 570.554688 258.453125 568.027344 C 226.722656 560.867188 201.492188 547.664062 168.121094 549.960938 C 149.269531 551.257812 129.183594 565.179688 120.300781 581.625 C 113.097656 594.960938 111.113281 610.785156 113.398438 625.765625 C 114.621094 633.777344 117.140625 641.832031 122.355469 648.035156 C 125.058594 651.253906 128.40625 653.875 131.898438 656.21875 C 163.300781 677.257812 204.207031 675.449219 241.878906 672.257812 C 262.308594 670.523438 282.765625 668.625 302.976562 665.074219 C 319.167969 662.226562 337.601562 660.949219 352.945312 654.96875 C 361.199219 651.75 367.875 645.324219 372.976562 638.082031 C 377.617188 631.488281 379.140625 625.070312 380.890625 617.84375 C 371.058594 622.871094 361.929688 630.378906 355.179688 623.632812 Z M 355.179688 623.632812 " fill-opacity="1" fill-rule="nonzero"/><path fill="#2e689c" d="M 120.746094 513.289062 C 124.398438 524.640625 134.625 535.613281 142.046875 543.996094 C 153.449219 556.871094 168.601562 562.515625 184.964844 566.390625 C 226.316406 576.179688 268.972656 580.449219 311.445312 579.050781 C 316.191406 578.894531 321.09375 578.632812 325.375 576.574219 C 331.667969 573.550781 335.574219 567.207031 339.128906 561.195312 C 346.8125 548.199219 354.609375 534.929688 357.921875 520.203125 C 361.238281 505.472656 359.394531 488.777344 349.476562 477.390625 C 341.777344 468.554688 330.386719 464.011719 319.394531 459.941406 C 290.242188 449.148438 261.503906 436.222656 230.6875 430.84375 C 206.082031 426.546875 174.414062 423.144531 153.035156 438.625 C 143.078125 445.835938 135.386719 455.816406 129.429688 466.566406 C 122.464844 479.132812 117.546875 494.015625 119.625 508.523438 C 119.855469 510.113281 120.238281 511.707031 120.746094 513.289062 Z M 120.746094 513.289062 " fill-opacity="1" fill-rule="nonzero"/><path fill="#e468b4" d="M 317.097656 368.289062 C 300.863281 358.234375 285.203125 347.484375 268.378906 338.097656 C 258.976562 332.851562 251.265625 325.820312 240.988281 322.410156 C 218.820312 315.058594 194.90625 318.570312 174.894531 330.253906 C 166.453125 335.179688 158.53125 341.269531 152.734375 349.136719 C 142.578125 362.917969 139.871094 381.738281 145.238281 397.992188 C 150.730469 414.609375 161.480469 427.632812 178.316406 432.4375 C 219.519531 444.199219 260.625 457.867188 302 468.71875 C 320.957031 438.289062 328.242188 402.566406 317.097656 368.289062 Z M 317.097656 368.289062 " fill-opacity="1" fill-rule="nonzero"/><path fill="#ffda73" d="M 390.121094 414.136719 C 384.683594 403.75 376.195312 392.929688 367.023438 390.65625 C 359.03125 388.671875 353.125 388.699219 345.511719 384.550781 C 342.375 382.84375 339.238281 381.132812 336.097656 379.425781 C 335.539062 379.121094 334.976562 378.8125 334.421875 378.503906 C 328.523438 375.246094 322.773438 371.808594 317.09375 368.289062 C 328.238281 402.566406 320.953125 438.289062 302 468.722656 C 306.085938 469.796875 310.171875 470.871094 314.265625 471.886719 C 336.523438 477.386719 363.636719 481.597656 383.019531 466.191406 C 384.136719 465.300781 385.167969 464.335938 386.15625 463.332031 C 378.710938 460.78125 369.074219 460.394531 367.152344 458.472656 C 359.023438 434.097656 368.148438 418.347656 390.121094 414.136719 Z M 390.121094 414.136719 " fill-opacity="1" fill-rule="nonzero"/><path fill="#e468b4" d="M 395.101562 426.03125 C 394.066406 422.546875 392.339844 418.375 390.121094 414.136719 C 368.148438 418.347656 359.023438 434.097656 367.152344 458.472656 C 369.078125 460.394531 378.710938 460.777344 386.15625 463.332031 C 395.648438 453.675781 398.976562 439.082031 395.101562 426.03125 Z M 395.101562 426.03125 " fill-opacity="1" fill-rule="nonzero"/></svg>